# xmcd
#
# Track frame offsets:
#	150
#	25126
#	42896
#	62937
#	84824
#	111604
#	125359
#	150954
#	167084
#	196519
#	209172
#
# Disc length: 3056 seconds
#
# Revision: 1
# Processed by: cddbd v1.5.2PL0 Copyright (c) Steve Scherf et al.
# Submitted via: audiograbber 1.83.01
#
DISCID=8c0bee0b
DTITLE=Will Wilde - Raw Blues
DYEAR=2013
DGENRE=Blues Harmonica
TTITLE0=Paranoia
TTITLE1=Thirty Eight
TTITLE2=Numb
TTITLE3=Your Days Are Numbered
TTITLE4=Get Me Some
TTITLE5=Midnight Girl
TTITLE6=Mean Mistreatin Mama
TTITLE7=What Makes People
TTITLE8=Citalopram Blues
TTITLE9=You´re My Only Girl
TTITLE10=Numb (Guitar Edit)
EXTD=
EXTT0=
EXTT1=
EXTT2=
EXTT3=
EXTT4=
EXTT5=
EXTT6=
EXTT7=
EXTT8=
EXTT9=
EXTT10=
PLAYORDER=
